<svg width="174" height="52" viewBox="0 0 174 52" fill="none" xmlns="http://www.w3.org/2000/svg">
<path d="M13.086 1.00684C6.42639 1.00684 1 6.58535 1 13.5275V38.5275C1 45.4283 6.42639 51.0068 13.086 51.0068H37.2992C44 51.0068 49.3853 45.4283 49.3853 38.4862V1.00684H13.086Z" stroke="white"/>
<path d="M14.2368 20.9657C13.8257 19.1889 15.5523 17.5773 17.8133 17.5773C19.8276 17.5773 21.842 18.0319 22.623 20.9244H25.2129V25.3872C21.9653 22.66 14.9768 24.3542 14.2368 20.9657ZM40.9987 19.7674H35.2024L29.6527 26.0071V13.5277H25.1718V16.5442C25.0073 16.3376 24.884 16.1723 24.6785 15.9657C23.0341 14.1889 20.6909 13.2798 17.6899 13.2798C14.1957 13.2798 12.2224 14.8914 11.1947 16.2137C9.87924 17.8666 9.30371 20.1806 9.7148 22.0401C10.7836 26.8335 15.1001 27.6186 18.2655 28.0319C20.7731 28.3624 23.1574 28.8583 23.1163 31.131C23.0341 33.5277 20.4442 34.1062 18.7177 34.1062C14.2368 34.1062 14.1135 30.6765 14.1135 30.6765H9.30371C9.38593 31.9575 9.75591 34.0236 11.2769 35.8004C12.9624 37.7426 15.4701 38.7343 18.7177 38.7343C21.2253 38.7343 23.5274 37.9079 25.1718 36.379V38.4451H29.6527V32.5773L31.2559 30.8004L35.7779 38.4864H40.9987L34.4213 27.2054L40.9987 19.7674Z" fill="white"/>
<path d="M69.6519 24.6848C69.5286 24.4368 69.3641 24.2302 69.1586 23.9823C68.953 23.7757 68.7475 23.5691 68.4186 23.4038C68.1309 23.2385 67.802 23.0732 67.3909 22.9492C66.9798 22.8253 66.5276 22.7839 65.9932 22.7839C65.7876 22.7839 65.4999 22.8253 65.171 22.8666C64.8832 22.9492 64.5544 23.0319 64.2255 23.1972C63.8966 23.3625 63.5678 23.6104 63.2389 23.8996C62.9511 24.1889 62.6223 24.5608 62.4167 25.0567C62.1289 25.5525 61.9234 26.131 61.8001 26.7922C61.6356 27.4534 61.5945 28.2798 61.5945 29.1889C61.5945 30.1806 61.6767 31.0897 61.8823 31.8748C62.0878 32.66 62.3756 33.3624 62.7456 33.8996C63.1156 34.4368 63.6089 34.8501 64.1433 35.1393C64.6777 35.4286 65.2943 35.5939 65.9932 35.5939C66.8154 35.5939 67.432 35.4699 67.9253 35.222C68.4186 34.974 68.8297 34.6434 69.1175 34.2715C69.4052 33.8996 69.6519 33.5277 69.7752 33.1145C69.9397 32.7426 70.063 32.3707 70.1452 32.0815H73.8861C73.6806 33.2385 73.3517 34.2715 72.8995 35.098C72.4062 35.9658 71.8307 36.6682 71.1729 37.2054C70.5152 37.7839 69.7341 38.1972 68.8708 38.4864C68.0075 38.7757 67.1031 38.8996 66.1576 38.8996C64.8421 38.8996 63.6089 38.6517 62.5811 38.1972C61.5534 37.7426 60.6901 37.0815 59.9502 36.255C59.2513 35.3872 58.7169 34.3542 58.3469 33.1558C57.9769 31.9575 57.8125 30.5939 57.8125 29.1476C57.8125 27.9905 57.8947 26.9575 58.1414 26.0484C58.3469 25.098 58.6347 24.2715 59.0047 23.5691C59.3746 22.8253 59.8268 22.2467 60.3613 21.7096C60.8546 21.1724 61.4301 20.7591 62.0467 20.4286C62.6634 20.098 63.28 19.8501 63.9377 19.6434C64.6366 19.4782 65.2943 19.3955 65.9521 19.3955C66.9387 19.3955 67.802 19.5195 68.5831 19.7261C69.323 19.974 70.0219 20.222 70.5974 20.5939C71.1729 20.9658 71.6662 21.3377 72.0362 21.7922C72.4473 22.2467 72.7762 22.7426 73.0228 23.1972C73.2695 23.693 73.4339 24.1889 73.5984 24.6434C73.7217 25.1393 73.8039 25.5939 73.845 26.0071H70.063L69.8985 25.3872C69.8574 25.1806 69.7752 24.9327 69.6519 24.6848Z" fill="white"/>
<path d="M83.9167 24.7261H88.5209L83.0123 30.4699L88.7676 38.5277H84.2456L80.3402 32.7013L78.9014 34.1476V38.5277H75.4482V24.7261H78.9014V29.974L83.9167 24.7261Z" fill="white"/>
<path d="M91.8924 33.1557C91.9746 33.6928 92.1801 34.1474 92.4268 34.5193C92.6734 34.9325 93.0023 35.2631 93.4134 35.511C93.8245 35.759 94.3178 35.8829 94.9344 35.8829C95.5511 35.8829 96.0855 35.759 96.4966 35.511C96.9077 35.2631 97.2365 34.9325 97.4832 34.5606C97.7299 34.1887 97.8943 33.7342 98.0176 33.197C98.0998 32.6598 98.1821 32.1639 98.1821 31.6267C98.1821 31.0895 98.1409 30.5524 98.0176 30.0565C97.9354 29.5193 97.7299 29.0647 97.4832 28.6928C97.2365 28.3209 96.9077 27.9904 96.4966 27.7424C96.0855 27.4945 95.5511 27.4119 94.9344 27.4119C94.3178 27.4119 93.8245 27.5358 93.4134 27.7838C93.0023 28.0317 92.6734 28.3623 92.4268 28.7342C92.139 29.1474 91.9746 29.6019 91.8924 30.0978C91.8102 30.635 91.7279 31.1309 91.7279 31.6681C91.7279 32.1226 91.8102 32.6598 91.8924 33.1557ZM88.6037 28.6928C88.8914 27.7838 89.3436 26.9986 89.9603 26.3788C90.5769 25.7176 91.2757 25.2218 92.139 24.8912C93.0023 24.5193 93.9067 24.354 94.9756 24.354C96.0444 24.354 96.9899 24.5193 97.8532 24.8912C98.7165 25.2631 99.4153 25.759 99.9909 26.3788C100.566 27.04 101.019 27.8251 101.347 28.6928C101.635 29.5606 101.8 30.5524 101.8 31.6267C101.8 32.7011 101.635 33.6928 101.347 34.5606C101.019 35.4697 100.566 36.2548 99.9909 36.8747C99.4153 37.4945 98.7165 38.0317 97.8532 38.3623C96.9899 38.7342 96.0444 38.8995 94.9756 38.8995C93.9067 38.8995 93.0023 38.7342 92.139 38.3623C91.2757 37.9904 90.5769 37.4945 89.9603 36.8747C89.3436 36.2135 88.8914 35.4284 88.6037 34.5606C88.3159 33.6928 88.1104 32.7011 88.1104 31.6267C88.1104 30.5524 88.2748 29.5606 88.6037 28.6928Z" fill="white"/>
<path d="M108.295 27.6186L108.254 30.1806C108.213 31.6269 108.09 32.9079 107.966 33.9823C107.802 35.0567 107.596 35.9657 107.308 36.7095C106.98 37.4533 106.568 37.9905 106.034 38.3624C105.5 38.7343 104.801 38.8996 103.979 38.8996C103.568 38.8996 103.239 38.8583 102.951 38.8583C102.663 38.817 102.416 38.7343 102.211 38.6517V35.6352C102.334 35.6765 102.499 35.7591 102.663 35.8005C102.828 35.8418 103.033 35.8418 103.28 35.8418C103.568 35.8418 103.773 35.7591 103.979 35.5938C104.184 35.4286 104.349 35.1393 104.513 34.7261C104.677 34.2715 104.76 33.693 104.883 32.9079C104.965 32.1228 105.006 31.131 105.047 29.9327L105.13 24.7261H115.859V38.5277H112.406V27.6186H108.295Z" fill="white"/>
<path d="M126.876 24.7261H131.48L125.971 30.4699L131.685 38.5277H127.163L123.258 32.7013L121.86 34.1476V38.5277H118.407V24.7261H121.86V29.974L126.876 24.7261Z" fill="white"/>
<path d="M134.85 33.1557C134.933 33.6928 135.138 34.1474 135.385 34.5193C135.632 34.9325 135.96 35.2631 136.372 35.511C136.783 35.759 137.276 35.8829 137.893 35.8829C138.509 35.8829 139.044 35.759 139.455 35.511C139.866 35.2631 140.195 34.9325 140.441 34.5606C140.688 34.1887 140.852 33.7342 140.976 33.197C141.058 32.6598 141.14 32.1639 141.14 31.6267C141.14 31.0895 141.099 30.5524 140.976 30.0565C140.894 29.5193 140.688 29.0647 140.441 28.6928C140.195 28.3209 139.866 27.9904 139.455 27.7424C139.044 27.4945 138.509 27.4119 137.893 27.4119C137.276 27.4119 136.783 27.5358 136.372 27.7838C135.96 28.0317 135.632 28.3623 135.385 28.7342C135.097 29.1474 134.933 29.6019 134.85 30.0978C134.768 30.635 134.686 31.1309 134.686 31.6681C134.686 32.1226 134.768 32.6598 134.85 33.1557ZM131.521 28.6928C131.808 27.7838 132.261 26.9986 132.877 26.3788C133.494 25.7176 134.193 25.2218 135.056 24.8912C135.919 24.5193 136.824 24.354 137.893 24.354C138.961 24.354 139.907 24.5193 140.77 24.8912C141.633 25.2631 142.332 25.759 142.908 26.3788C143.483 27.04 143.936 27.8251 144.264 28.6928C144.552 29.5606 144.717 30.5524 144.717 31.6267C144.717 32.7011 144.552 33.6928 144.264 34.5606C143.936 35.4697 143.483 36.2548 142.908 36.8747C142.332 37.4945 141.633 38.0317 140.77 38.3623C139.907 38.7342 138.961 38.8995 137.893 38.8995C136.824 38.8995 135.919 38.7342 135.056 38.3623C134.193 37.9904 133.494 37.4945 132.877 36.8747C132.261 36.2135 131.808 35.4284 131.521 34.5606C131.233 33.6928 131.027 32.7011 131.027 31.6267C131.068 30.5524 131.233 29.5606 131.521 28.6928Z" fill="white"/>
<path d="M153.679 35.8005C153.966 35.6765 154.213 35.5525 154.378 35.3459C154.542 35.1806 154.665 35.0153 154.706 34.8087C154.748 34.6021 154.789 34.4368 154.789 34.2302C154.789 33.8996 154.748 33.6104 154.665 33.3624C154.583 33.1558 154.46 32.9905 154.254 32.8252C154.09 32.66 153.843 32.5773 153.514 32.536C153.227 32.4947 152.857 32.4533 152.445 32.4533H149.814V35.8831H152.487C152.98 35.9657 153.391 35.9244 153.679 35.8005ZM153.473 30.0567C153.72 29.974 153.925 29.8914 154.09 29.7674C154.254 29.6434 154.378 29.5195 154.419 29.3129C154.501 29.1476 154.501 28.8996 154.501 28.6517C154.501 28.4451 154.46 28.2798 154.419 28.0732C154.378 27.9079 154.254 27.7426 154.09 27.6186C153.966 27.4947 153.761 27.412 153.514 27.3294C153.268 27.2467 152.98 27.2054 152.569 27.2054H149.814V30.098H152.487C152.857 30.1393 153.185 30.098 153.473 30.0567ZM155.035 24.8914C155.57 25.0153 156.104 25.2219 156.556 25.4699C156.967 25.7591 157.337 26.131 157.584 26.5856C157.831 27.0401 157.954 27.66 157.954 28.3624C157.954 28.7757 157.913 29.1476 157.831 29.4368C157.749 29.7674 157.625 30.0153 157.461 30.2219C157.296 30.4699 157.132 30.6352 156.967 30.7591C156.762 30.9244 156.597 31.0484 156.351 31.131C157.05 31.379 157.543 31.7509 157.872 32.2881C158.242 32.8252 158.406 33.4451 158.406 34.1889C158.406 34.85 158.324 35.4286 158.119 35.9657C157.872 36.5029 157.584 36.9575 157.173 37.3294C156.762 37.7013 156.31 37.9905 155.734 38.1971C155.159 38.4038 154.542 38.5277 153.843 38.5277H146.361V24.7261H153.268C153.884 24.7261 154.46 24.7674 155.035 24.8914Z" fill="white"/>
<path d="M163.134 33.1557C163.216 33.6928 163.421 34.1474 163.668 34.5193C163.915 34.9325 164.244 35.2631 164.655 35.511C165.066 35.759 165.559 35.8829 166.176 35.8829C166.792 35.8829 167.327 35.759 167.738 35.511C168.149 35.2631 168.478 34.9325 168.724 34.5606C168.971 34.1887 169.135 33.7342 169.259 33.197C169.341 32.6598 169.423 32.1639 169.423 31.6267C169.423 31.0895 169.382 30.5524 169.259 30.0565C169.177 29.5193 168.971 29.0647 168.724 28.6928C168.478 28.3209 168.149 27.9904 167.738 27.7424C167.327 27.4945 166.792 27.4119 166.176 27.4119C165.559 27.4119 165.066 27.5358 164.655 27.7838C164.244 28.0317 163.915 28.3623 163.668 28.7342C163.38 29.1474 163.216 29.6019 163.134 30.0978C163.051 30.635 162.969 31.1309 162.969 31.6681C162.969 32.1226 163.051 32.6598 163.134 33.1557ZM159.845 28.6928C160.133 27.7838 160.585 26.9986 161.201 26.3788C161.818 25.7176 162.517 25.2218 163.38 24.8912C164.244 24.5193 165.148 24.354 166.217 24.354C167.286 24.354 168.231 24.5193 169.094 24.8912C169.958 25.2631 170.657 25.759 171.232 26.3788C171.808 27.04 172.26 27.8251 172.589 28.6928C172.876 29.5606 173.041 30.5524 173.041 31.6267C173.041 32.7011 172.876 33.6928 172.589 34.5606C172.26 35.4697 171.808 36.2548 171.232 36.8747C170.657 37.4945 169.958 38.0317 169.094 38.3623C168.231 38.7342 167.286 38.8995 166.217 38.8995C165.148 38.8995 164.244 38.7342 163.38 38.3623C162.517 37.9904 161.818 37.4945 161.201 36.8747C160.585 36.2135 160.133 35.4284 159.845 34.5606C159.557 33.6928 159.352 32.7011 159.352 31.6267C159.352 30.5524 159.516 29.5606 159.845 28.6928Z" fill="white"/>
</svg>
