<svg width="1190" height="149" viewBox="0 0 1190 149" fill="none" xmlns="http://www.w3.org/2000/svg">
<path d="M180.882 37.9771H196.308L210.19 83.9777L225.23 37.9771H236.992L252.031 83.9777L265.914 37.9771H280.954L258.394 105.224H245.476L231.014 62.5367L216.36 105.224H203.442L180.882 37.9771Z" fill="white"/>
<path d="M278.253 80.083C278.253 65.4641 289.822 53.769 305.44 53.769C320.866 53.769 332.435 65.4641 332.435 80.083C332.435 94.7019 320.866 106.397 305.248 106.397C289.822 106.397 278.253 94.7019 278.253 80.083ZM318.552 80.083C318.552 72.6761 313.153 66.0489 305.44 66.0489C297.342 66.0489 292.522 72.2863 292.522 80.083C292.522 87.4899 297.921 94.1171 305.633 94.1171C313.539 93.9222 318.552 87.6848 318.552 80.083Z" fill="white"/>
<path d="M340.534 54.5444H354.802V61.7564C358.08 57.4682 362.322 53.5698 369.456 53.5698C380.254 53.5698 386.424 60.7818 386.424 72.282V105.028H372.156V76.96C372.156 70.1379 369.071 66.6293 363.479 66.6293C358.08 66.6293 354.61 70.1379 354.61 76.96V105.223H340.341V54.5444H340.534Z" fill="white"/>
<path d="M394.713 79.8866C394.713 62.9287 405.704 53.7676 417.465 53.7676C424.985 53.7676 429.613 57.2761 433.083 61.3694V45.7759L447.352 37.5894V105.421H433.083V98.014C429.613 102.692 424.792 106.201 417.465 106.201C405.896 106.201 394.713 96.8445 394.713 79.8866ZM433.276 79.8866C433.276 71.5051 427.685 65.8525 421.129 65.8525C414.573 65.8525 408.981 71.3102 408.981 80.0815C408.981 88.463 414.573 94.1156 421.129 94.1156C427.877 93.9207 433.276 88.463 433.276 79.8866Z" fill="white"/>
<path d="M457.376 80.083C457.376 65.6591 467.596 53.769 482.057 53.769C498.832 53.769 506.352 66.8286 506.352 81.2525C506.352 82.422 506.352 83.7864 506.159 84.956H471.259C472.609 91.3883 477.236 94.8968 483.407 94.8968C488.227 94.8968 491.698 93.3374 495.554 89.634L503.652 96.846C499.025 102.694 492.276 106.202 483.214 106.202C468.56 106.397 457.376 95.6765 457.376 80.083ZM492.662 75.9897C491.891 69.5574 488.034 65.2692 482.057 65.2692C476.08 65.2692 472.416 69.5574 471.259 75.9897H492.662Z" fill="white"/>
<path d="M517.539 54.5488H531.807V64.8795C534.699 57.8624 539.327 53.3793 547.811 53.7691V68.7778H547.039C537.591 68.7778 531.807 74.6254 531.807 86.7103V105.422H517.539V54.5488Z" fill="white"/>
<path d="M607.767 52.0026H587.907V38.5532H642.088V52.0026H622.228V105.8H607.767V52.0026Z" fill="white"/>
<path d="M637.075 80.6543C637.075 66.2303 647.294 54.3403 661.755 54.3403C678.53 54.3403 686.05 67.3999 686.05 81.8238C686.05 82.9933 686.05 84.3577 685.857 85.5272H650.957C652.307 91.9595 656.935 95.4681 663.105 95.4681C667.925 95.4681 671.396 93.9087 675.252 90.2053L683.35 97.4173C678.723 103.265 671.974 106.773 662.912 106.773C648.258 106.968 637.075 96.2477 637.075 80.6543ZM672.36 76.561C671.589 70.1287 667.732 65.8405 661.755 65.8405C655.778 65.8405 652.114 70.1287 650.957 76.561H672.36Z" fill="white"/>
<path d="M693.183 80.6543C693.183 66.2303 704.174 54.3403 719.406 54.3403C728.854 54.3403 734.638 57.8489 739.266 63.3066L730.975 71.883C727.89 68.9592 724.998 66.8151 719.213 66.8151C712.079 66.8151 707.066 73.0525 707.066 80.8492C707.066 88.6459 712.079 94.8833 719.792 94.8833C724.612 94.8833 727.89 92.7392 731.361 89.4256L739.652 98.002C734.831 103.46 729.24 107.163 719.213 107.163C704.174 106.968 693.183 95.2731 693.183 80.6543Z" fill="white"/>
<path d="M747.558 38.1655H761.826V62.3354C765.104 58.0472 769.346 54.1488 776.48 54.1488C787.278 54.1488 793.448 61.3608 793.448 72.8609V105.607H779.179V77.3441C779.179 70.5219 776.094 67.0134 770.503 67.0134C764.911 67.0134 761.633 70.5219 761.633 77.3441V105.607H747.365V38.1655H747.558Z" fill="white"/>
<path d="M808.295 55.1216H822.563V62.3335C825.841 58.0453 830.083 54.147 837.217 54.147C848.015 54.147 854.185 61.3589 854.185 72.8591V105.605H839.917V77.3422C839.917 70.5201 836.832 67.0116 831.24 67.0116C825.648 67.0116 822.37 70.5201 822.37 77.3422V105.605H808.102V55.1216H808.295Z" fill="white"/>
<path d="M861.898 80.6543C861.898 66.0354 873.467 54.3403 889.085 54.3403C904.51 54.3403 916.079 66.0354 916.079 80.6543C916.079 95.2731 904.51 106.968 888.892 106.968C873.274 106.968 861.898 95.2731 861.898 80.6543ZM902.003 80.6543C902.003 73.2474 896.605 66.6202 888.892 66.6202C880.794 66.6202 875.973 72.8576 875.973 80.6543C875.973 88.0612 881.372 94.6884 889.085 94.6884C897.183 94.4935 902.003 88.2561 902.003 80.6543Z" fill="white"/>
<path d="M924.37 46.9322L938.638 38.7456V105.992H924.37V46.9322Z" fill="white"/>
<path d="M947.892 80.6543C947.892 66.0354 959.461 54.3403 975.079 54.3403C990.504 54.3403 1002.07 66.0354 1002.07 80.6543C1002.07 95.2731 990.504 106.968 974.886 106.968C959.268 106.968 947.892 95.2731 947.892 80.6543ZM987.998 80.6543C987.998 73.2474 982.599 66.6202 974.886 66.6202C966.788 66.6202 961.968 72.8576 961.968 80.6543C961.968 88.0612 967.366 94.6884 975.079 94.6884C983.177 94.4935 987.998 88.2561 987.998 80.6543Z" fill="white"/>
<path d="M1011.72 115.741L1016.54 105.021C1021.74 107.944 1026.75 109.699 1033.5 109.699C1043.14 109.699 1047.77 105.021 1047.77 95.8594V93.3255C1043.53 98.3934 1038.9 101.512 1031.38 101.512C1019.62 101.512 1009.21 92.9357 1009.21 77.7321C1009.21 62.5284 1020.01 54.147 1031.38 54.147C1039.09 54.147 1043.72 57.4606 1047.58 61.7488V55.1216H1061.85V94.3001C1061.85 103.461 1059.73 109.894 1055.48 114.182C1050.86 118.86 1043.53 121.004 1033.89 121.004C1025.6 121.004 1018.08 119.25 1011.72 115.741ZM1047.77 77.927C1047.77 71.1049 1042.37 66.2319 1035.62 66.2319C1028.88 66.2319 1023.48 71.1049 1023.48 78.1219C1023.48 85.139 1028.68 89.817 1035.62 89.817C1042.57 89.817 1047.77 84.944 1047.77 77.927Z" fill="white"/>
<path d="M1071.87 38.5532H1086.91V51.028H1071.87V38.5532ZM1072.26 55.1213H1086.53V105.8H1072.26V55.1213Z" fill="white"/>
<path d="M1095.78 80.6543C1095.78 66.2303 1106 54.3403 1120.46 54.3403C1137.24 54.3403 1144.76 67.3999 1144.76 81.8238C1144.76 82.9933 1144.76 84.3577 1144.57 85.5272H1109.67C1111.02 91.9595 1115.64 95.4681 1121.81 95.4681C1126.63 95.4681 1130.1 93.9087 1133.96 90.2053L1142.06 97.4173C1137.43 103.265 1130.68 106.773 1121.62 106.773C1106.97 106.968 1095.78 96.2477 1095.78 80.6543ZM1131.07 76.561C1130.3 70.1287 1126.44 65.8405 1120.46 65.8405C1114.49 65.8405 1110.82 70.1287 1109.67 76.561H1131.07Z" fill="white"/>
<path d="M1149.19 99.1752L1155.17 89.8192C1160.57 93.7175 1166.35 95.8616 1170.98 95.8616C1175.03 95.8616 1176.96 94.3023 1176.96 91.9633C1176.96 88.8446 1172.14 87.87 1166.55 86.1157C1159.61 83.9716 1151.51 80.658 1151.51 70.7172C1151.51 60.3865 1159.8 54.7339 1169.82 54.7339C1176.19 54.7339 1183.13 56.878 1188.53 60.5814L1183.13 70.5223C1178.12 67.5985 1173.3 65.8442 1169.63 65.8442C1166.16 65.8442 1164.43 67.4036 1164.43 69.5477C1164.43 72.4714 1169.25 73.6409 1174.64 75.5901C1181.59 77.9291 1189.68 81.4377 1189.68 90.7937C1189.68 102.099 1181.39 107.167 1170.6 107.167C1163.65 106.777 1155.75 104.438 1149.19 99.1752Z" fill="white"/>
<g clip-path="url(#clip0_1_8)">
<path d="M129.772 36.8157L114.549 45.7007L116.538 49.1823L131.761 40.2973L129.772 36.8157Z" fill="white"/>
<path d="M108.808 85.9947L152.078 60.7468L150.169 57.2893L124 72.4863L122.091 69.0287L131.636 63.4002L129.727 59.9427L91.7066 82.1352L89.7181 78.6776L127.659 56.5656L125.67 53.1081L146.669 40.8058L144.68 37.3482L96.8767 65.2496L94.9677 61.7921L110.398 52.7865L108.49 49.3289L102.206 52.9473L100.217 49.4897L129.647 32.2826L127.738 28.825L112.307 37.8307L110.319 34.3732L127.102 24.5635L125.113 21.1059L79.3778 47.8012L77.4689 44.3437L102.842 29.5487L100.854 26.0912L124.398 12.2611L122.489 8.80361L55.9135 47.6404L53.925 44.1829L110.239 11.3766L108.251 7.91912L75.1622 27.2169L73.1737 23.7594L83.3548 17.8092L81.4459 14.3517L89.1613 9.8489L73.3328 0.602051L10.0984 37.509V78.9993L21.3931 72.4863L23.302 75.9438L10.0984 83.6629V88.2461L1.98528 92.9902L3.97379 96.4477L19.166 87.6029L21.1545 91.0604L9.70068 97.7342L11.6892 101.192L43.3462 82.698L45.2551 86.1555L0.314941 112.449L2.30344 115.906L22.6657 104.006L24.6542 107.463L14.0754 113.655L17.9729 115.906L36.9829 104.81L38.9714 108.268L21.9499 118.238L73.3328 148.23L136.567 111.323V83.6629L132.113 86.2359L130.204 82.7784L136.567 78.9993V74.416L110.717 89.4522L108.808 85.9947Z" fill="white"/>
<path d="M147.88 26.321L145.891 22.8394L134.319 29.5936L136.307 33.0752L147.88 26.321Z" fill="white"/>
</g>
<defs>
<clipPath id="clip0_1_8">
<rect width="416.949" height="147.628" fill="white" transform="translate(0.314941 0.602051)"/>
</clipPath>
</defs>
</svg>
