<svg width="128" height="47" viewBox="0 0 128 47" fill="none" xmlns="http://www.w3.org/2000/svg">
<g clip-path="url(#clip0_1_312)">
<path d="M34.6986 10.3518L30.6184 12.769L31.1514 13.7161L35.2316 11.299L34.6986 10.3518Z" fill="white"/>
<path d="M47.7666 12.0749H49.7201L51.4782 17.9877L53.3828 12.0749H54.8723L56.7769 17.9877L58.535 12.0749H60.4396L57.5827 20.7187H55.9467L54.1153 15.2317L52.2595 20.7187H50.6235L47.7666 12.0749Z" fill="white"/>
<path d="M60.0977 17.4869C60.0977 15.6078 61.5627 14.1046 63.5406 14.1046C65.4941 14.1046 66.9592 15.6078 66.9592 17.4869C66.9592 19.366 65.4941 20.8693 63.5162 20.8693C61.5627 20.8693 60.0977 19.366 60.0977 17.4869ZM65.2011 17.4869C65.2011 16.5349 64.5173 15.683 63.5406 15.683C62.5151 15.683 61.9046 16.4847 61.9046 17.4869C61.9046 18.439 62.5883 19.2908 63.565 19.2908C64.5662 19.2658 65.2011 18.464 65.2011 17.4869Z" fill="white"/>
<path d="M67.9846 14.2046H69.7916V15.1316C70.2067 14.5804 70.7439 14.0793 71.6473 14.0793C73.0148 14.0793 73.7961 15.0064 73.7961 16.4846V20.6937H71.9892V17.0859C71.9892 16.209 71.5985 15.758 70.8904 15.758C70.2067 15.758 69.7671 16.209 69.7671 17.0859V20.7188H67.9602V14.2046H67.9846Z" fill="white"/>
<path d="M74.8464 17.4618C74.8464 15.2821 76.2383 14.1045 77.7278 14.1045C78.6801 14.1045 79.2661 14.5555 79.7056 15.0817V13.0773L81.5126 12.025V20.744H79.7056V19.7919C79.2661 20.3932 78.6557 20.8442 77.7278 20.8442C76.2627 20.8442 74.8464 19.6416 74.8464 17.4618ZM79.7301 17.4618C79.7301 16.3845 79.0219 15.6579 78.1917 15.6579C77.3615 15.6579 76.6534 16.3594 76.6534 17.4869C76.6534 18.5642 77.3615 19.2908 78.1917 19.2908C79.0464 19.2657 79.7301 18.5642 79.7301 17.4618Z" fill="white"/>
<path d="M82.782 17.487C82.782 15.6329 84.0761 14.1046 85.9075 14.1046C88.0319 14.1046 88.9842 15.7833 88.9842 17.6373C88.9842 17.7876 88.9842 17.963 88.9598 18.1133H84.5401C84.711 18.9401 85.2971 19.3911 86.0784 19.3911C86.6889 19.3911 87.1284 19.1907 87.6168 18.7146L88.6423 19.6417C88.0563 20.3933 87.2017 20.8443 86.054 20.8443C84.1982 20.8693 82.782 19.4913 82.782 17.487ZM87.2505 16.9608C87.1528 16.134 86.6645 15.5828 85.9075 15.5828C85.1505 15.5828 84.6866 16.134 84.5401 16.9608H87.2505Z" fill="white"/>
<path d="M90.4001 14.2051H92.2071V15.5329C92.5734 14.631 93.1594 14.0547 94.2338 14.1048V16.034H94.1361C92.9396 16.034 92.2071 16.7857 92.2071 18.339V20.7443H90.4001V14.2051Z" fill="white"/>
<path d="M50.3063 25.0532H47.7913V23.3244H54.6528V25.0532H52.1377V31.9682H50.3063V25.0532Z" fill="white"/>
<path d="M54.0173 28.7364C54.0173 26.8824 55.3115 25.354 57.1429 25.354C59.2672 25.354 60.2195 27.0327 60.2195 28.8867C60.2195 29.0371 60.2195 29.2124 60.1951 29.3628H55.7754C55.9464 30.1896 56.5324 30.6405 57.3138 30.6405C57.9242 30.6405 58.3638 30.4401 58.8521 29.9641L59.8777 30.8911C59.2917 31.6427 58.437 32.0937 57.2894 32.0937C55.4336 32.1188 54.0173 30.7408 54.0173 28.7364ZM58.4859 28.2103C58.3882 27.3835 57.8998 26.8323 57.1429 26.8323C56.3859 26.8323 55.9219 27.3835 55.7754 28.2103H58.4859Z" fill="white"/>
<path d="M61.123 28.7364C61.123 26.8824 62.5149 25.354 64.4439 25.354C65.6404 25.354 66.373 25.805 66.959 26.5066L65.909 27.609C65.5183 27.2331 65.152 26.9575 64.4195 26.9575C63.516 26.9575 62.8812 27.7593 62.8812 28.7615C62.8812 29.7636 63.516 30.5654 64.4928 30.5654C65.1032 30.5654 65.5183 30.2898 65.9578 29.8639L67.0078 30.9662C66.3974 31.6678 65.6892 32.1438 64.4195 32.1438C62.5149 32.1188 61.123 30.6155 61.123 28.7364Z" fill="white"/>
<path d="M68.009 23.2747H69.816V26.3815C70.2311 25.8303 70.7683 25.3292 71.6718 25.3292C73.0392 25.3292 73.8206 26.2562 73.8206 27.7344V31.9435H72.0136V28.3107C72.0136 27.4337 71.6229 26.9828 70.9148 26.9828C70.2067 26.9828 69.7916 27.4337 69.7916 28.3107V31.9435H67.9846V23.2747H68.009Z" fill="white"/>
<path d="M75.7007 25.4542H77.5076V26.3812C77.9227 25.83 78.4599 25.3289 79.3634 25.3289C80.7308 25.3289 81.5122 26.256 81.5122 27.7342V31.9433H79.7053V28.3104C79.7053 27.4335 79.3146 26.9825 78.6064 26.9825C77.8983 26.9825 77.4832 27.4335 77.4832 28.3104V31.9433H75.6763V25.4542H75.7007Z" fill="white"/>
<path d="M82.4893 28.7364C82.4893 26.8573 83.9543 25.354 85.9322 25.354C87.8857 25.354 89.3508 26.8573 89.3508 28.7364C89.3508 30.6155 87.8857 32.1188 85.9078 32.1188C83.9299 32.1188 82.4893 30.6155 82.4893 28.7364ZM87.5682 28.7364C87.5682 27.7843 86.8845 26.9325 85.9078 26.9325C84.8822 26.9325 84.2718 27.7342 84.2718 28.7364C84.2718 29.6885 84.9555 30.5403 85.9322 30.5403C86.9578 30.5153 87.5682 29.7135 87.5682 28.7364Z" fill="white"/>
<path d="M90.4009 24.402L92.2078 23.3497V31.9935H90.4009V24.402Z" fill="white"/>
<path d="M93.3796 28.7364C93.3796 26.8573 94.8447 25.354 96.8226 25.354C98.7761 25.354 100.241 26.8573 100.241 28.7364C100.241 30.6155 98.7761 32.1187 96.7982 32.1187C94.8203 32.1187 93.3796 30.6155 93.3796 28.7364ZM98.4586 28.7364C98.4586 27.7843 97.7749 26.9325 96.7982 26.9325C95.7726 26.9325 95.1622 27.7342 95.1622 28.7364C95.1622 29.6885 95.8459 30.5403 96.8226 30.5403C97.8482 30.5153 98.4586 29.7135 98.4586 28.7364Z" fill="white"/>
<path d="M101.462 33.2462L102.072 31.8682C102.731 32.244 103.366 32.4695 104.221 32.4695C105.442 32.4695 106.028 31.8682 106.028 30.6906V30.3649C105.491 31.0163 104.905 31.4172 103.952 31.4172C102.463 31.4172 101.144 30.3148 101.144 28.3605C101.144 26.4063 102.512 25.3289 103.952 25.3289C104.929 25.3289 105.515 25.7549 106.003 26.3061V25.4542H107.81V30.4902C107.81 31.6677 107.542 32.4945 107.005 33.0457C106.419 33.647 105.491 33.9226 104.27 33.9226C103.22 33.9226 102.268 33.6971 101.462 33.2462ZM106.028 28.3856C106.028 27.5087 105.344 26.8823 104.49 26.8823C103.635 26.8823 102.951 27.5087 102.951 28.4106C102.951 29.3126 103.611 29.9139 104.49 29.9139C105.369 29.9139 106.028 29.2876 106.028 28.3856Z" fill="white"/>
<path d="M109.081 23.3244H110.985V24.9279H109.081V23.3244ZM109.129 25.454H110.936V31.9682H109.129V25.454Z" fill="white"/>
<path d="M112.108 28.7364C112.108 26.8824 113.403 25.354 115.234 25.354C117.358 25.354 118.311 27.0327 118.311 28.8867C118.311 29.037 118.311 29.2124 118.286 29.3627H113.867C114.037 30.1895 114.623 30.6405 115.405 30.6405C116.015 30.6405 116.455 30.4401 116.943 29.9641L117.969 30.8911C117.383 31.6427 116.528 32.0937 115.38 32.0937C113.525 32.1187 112.108 30.7407 112.108 28.7364ZM116.577 28.2102C116.479 27.3834 115.991 26.8322 115.234 26.8322C114.477 26.8322 114.013 27.3834 113.867 28.2102H116.577Z" fill="white"/>
<path d="M118.872 31.1168L119.629 29.9142C120.313 30.4153 121.046 30.6909 121.632 30.6909C122.144 30.6909 122.389 30.4905 122.389 30.1898C122.389 29.789 121.778 29.6637 121.07 29.4382C120.191 29.1626 119.165 28.7367 119.165 27.4589C119.165 26.131 120.215 25.4044 121.485 25.4044C122.291 25.4044 123.17 25.68 123.854 26.1561L123.17 27.4338C122.535 27.058 121.925 26.8325 121.461 26.8325C121.021 26.8325 120.801 27.033 120.801 27.3086C120.801 27.6844 121.412 27.8347 122.096 28.0852C122.975 28.3859 124 28.8369 124 30.0395C124 31.4927 122.95 32.1441 121.583 32.1441C120.704 32.094 119.703 31.7933 118.872 31.1168Z" fill="white"/>
<path d="M29.0794 23.731L40.677 16.8623L40.1653 15.9217L33.1513 20.056L32.6397 19.1154L35.198 17.5842L34.6863 16.6436L24.4957 22.681L23.9628 21.7404L34.132 15.7248L33.599 14.7842L39.2273 11.4374L38.6943 10.4968L25.8815 18.0873L25.3698 17.1467L29.5057 14.6967L28.9941 13.7561L27.3099 14.7405L26.7769 13.7998L34.665 9.11864L34.1533 8.17803L30.0174 10.628L29.4844 9.68739L33.9828 7.01867L33.4498 6.07806L21.1913 13.3405L20.6796 12.3999L27.4804 8.3749L26.9474 7.43429L33.2579 3.67184L32.7463 2.73122L14.9021 13.2967L14.3691 12.3561L29.4631 3.43121L28.9301 2.4906L20.0614 7.74054L19.5284 6.79992L22.2572 5.18119L21.7456 4.24058L23.8135 3.01559L19.571 0.5L2.62226 10.5405V21.8279L5.64958 20.056L6.16124 20.9966L2.62226 23.0966V24.3435L0.447703 25.6341L0.980682 26.5747L5.05265 24.1685L5.58563 25.1091L2.51566 26.9247L3.04864 27.8653L11.5337 22.8341L12.0453 23.7747L0 30.9278L0.53298 31.8684L5.99069 28.6309L6.52367 29.5715L3.68822 31.2559L4.73286 31.8684L9.82814 28.8497L10.3611 29.7903L5.79882 32.5027L19.571 40.662L36.5198 30.6215V23.0966L35.3259 23.7966L34.8142 22.856L36.5198 21.8279V20.581L29.591 24.6716L29.0794 23.731Z" fill="white"/>
<path d="M39.552 7.49681L39.019 6.54964L35.9174 8.38711L36.4503 9.33429L39.552 7.49681Z" fill="white"/>
</g>
<defs>
<clipPath id="clip0_1_312">
<rect width="128" height="46" fill="white" transform="translate(0 0.5)"/>
</clipPath>
</defs>
</svg>
