<svg width="69" height="66" viewBox="0 0 69 66" fill="none" xmlns="http://www.w3.org/2000/svg">
<path d="M48.9187 38.1765L68.4288 26.8889L67.5681 25.3431L55.7688 32.1373L54.908 30.5915L59.2118 28.0752L58.351 26.5294L41.2079 36.451L40.3113 34.9052L57.4185 25.0196L56.5219 23.4739L65.9901 17.9739L65.0935 16.4281L43.5391 28.902L42.6784 27.3562L49.636 23.3301L48.7753 21.7843L45.942 23.402L45.0454 21.8562L58.3151 14.1634L57.4544 12.6176L50.4968 16.6438L49.6002 15.098L57.1675 10.7124L56.2709 9.16667L35.649 21.1013L34.7882 19.5556L46.2289 12.9412L45.3323 11.3954L55.9481 5.21242L55.0874 3.66667L25.0691 21.0294L24.1725 19.4837L49.5643 4.81699L48.6677 3.27124L33.7482 11.8987L32.8516 10.3529L37.4422 7.69281L36.5815 6.14706L40.0603 4.13399L32.9233 0L4.41129 16.5V35.049L9.50401 32.1373L10.3647 33.683L4.41129 37.134V39.183L0.753148 41.3039L1.64975 42.8497L8.49981 38.8954L9.39641 40.4412L4.23197 43.4248L5.12858 44.9706L19.4025 36.7026L20.2633 38.2484L0 50.0033L0.896604 51.549L10.0778 46.2288L10.9744 47.7745L6.2045 50.5425L7.96185 51.549L16.5334 46.5882L17.43 48.134L9.75505 52.5915L32.9233 66L61.4353 49.5V37.134L59.4269 38.2843L58.5662 36.7386L61.4353 35.049V33L49.7795 39.7222L48.9187 38.1765Z" fill="white"/>
</svg>
