<svg width="345" height="271" viewBox="0 0 345 271" fill="none" xmlns="http://www.w3.org/2000/svg">
<path d="M1.33789 66.2928L33.0525 84.5675V121.692L1.33789 139.966V66.2928Z" stroke="#DE0000" stroke-opacity="0.4"/>
<path d="M233.894 75.6093L201.68 57.0774V19.9536L233.894 1.39086L266.078 19.9535V57.0775L233.894 75.6093Z" stroke="#DE0000" stroke-opacity="0.4"/>
<path d="M80.7549 75.6093L48.5403 57.0774V19.9536L80.7549 1.39079L112.97 19.9536V57.0774L80.7549 75.6093Z" stroke="#DE0000" stroke-opacity="0.4"/>
<path d="M272.172 140.756L239.957 122.193V85.0694L272.172 66.5065L304.386 85.0694V122.193L272.172 140.756Z" stroke="#DE0000" stroke-opacity="0.4"/>
<path d="M195.618 140.756L163.403 122.193V85.0694L195.618 66.5066L227.801 85.0692V122.193L195.618 140.756Z" stroke="#DE0000" stroke-opacity="0.4"/>
<path d="M233.894 204.994L201.68 186.431V149.307L233.894 130.744L266.078 149.307V186.431L233.894 204.994Z" stroke="#DE0000" stroke-opacity="0.4"/>
<path d="M157.308 204.994L125.125 186.431V149.307L157.308 130.744L189.523 149.307V186.431L157.308 204.994Z" stroke="#DE0000" stroke-opacity="0.4"/>
<path d="M80.7549 204.994L48.5403 186.431V149.307L80.7549 130.744L112.97 149.307V186.431L80.7549 204.994Z" stroke="#DE0000" stroke-opacity="0.4"/>
<path d="M272.172 270.109L239.957 251.547V214.454L272.172 195.891L304.386 214.454V251.547L272.172 270.109Z" stroke="#DE0000" stroke-opacity="0.4"/>
<path d="M42.4772 270.109L10.2627 251.547V214.454L42.4772 195.891L74.6605 214.454V251.547L42.4772 270.109Z" stroke="#DE0000" stroke-opacity="0.4"/>
<path d="M343.431 204.047L311.717 185.772V148.648L343.431 130.373V204.047Z" stroke="#DE0000" stroke-opacity="0.4"/>
<path d="M118.997 196.179L150.712 214.454V251.547L118.997 269.821V196.179Z" stroke="#DE0000" stroke-opacity="0.4"/>
<path d="M311.948 1.6789L343.663 19.9536V57.0774L311.948 75.3217V1.6789Z" stroke="#DE0000" stroke-opacity="0.4"/>
</svg>
