<?xml version="1.0" encoding="utf-8"?>
<!DOCTYPE svg PUBLIC "-//W3C//DTD SVG 1.1//EN" "http://www.w3.org/Graphics/SVG/1.1/DTD/svg11.dtd">


<svg version="1.1" xmlns="http://www.w3.org/2000/svg" xmlns:xlink="http://www.w3.org/1999/xlink">

    <!-- Open Link -->

  <symbol viewBox="0 0 34 34" id="open-link">
    <path
        id="open-link-arrow"
        d="M13 13H21M21 13V21M21 13L13 21"
        stroke-width="1.4"
        stroke-linecap="round"
        stroke-linejoin="round"
    />
  </symbol>

  <!-- Button Arrow -->
  <symbol viewBox="0 0 10 10" id="button-arrow">
    <line x1="0" y1="0.5" x2="10" y2="0.5" stroke="currentColor" stroke-width="1.2"/>
    <line x1="0.65492" y1="8.97118" x2="9.39265" y2="0.637904" stroke="currentColor" stroke-width="1.2"/>
    <line x1="9.5" y1="10" x2="9.5" y2="0" stroke="currentColor" stroke-width="1.2"/>
  </symbol>

  <!-- Slider Arrow -->
  <symbol viewBox="0 0 15 15" id="slider-arrow">
    <line x1="7.42151" y1="1.06566" x2="14.6532" y2="7.97233" stroke="#DE0000"/>
<line x1="2.00035" y1="7.5" x2="14.0748" y2="7.50847" stroke="#DE0000"/>
<line x1="7.73021" y1="14.497" x2="14.6369" y2="7.26522" stroke="#DE0000"/>
  </symbol>


  <!-- Customize Lab -->
  <symbol viewBox="0 0 54 56" id="customize-lab">
    <path d="M51.917 41.8371L48.5499 42.7395C57.0267 28.459 48.5479 8.65376 32.359 4.94968C32.1038 4.89051 31.8357 4.93377 31.6121 5.07016C31.3885 5.20655 31.2273 5.4252 31.1632 5.67913C31.0991 5.93306 31.1371 6.20202 31.2691 6.42822C31.4011 6.65442 31.6166 6.81982 31.8692 6.88889C46.787 10.2954 54.6037 28.5392 46.8361 41.709L45.9473 38.3908C45.8746 38.1392 45.7062 37.9261 45.4781 37.7973C45.25 37.6685 44.9805 37.6343 44.7275 37.7021C44.4745 37.7699 44.2582 37.9343 44.1251 38.1598C43.992 38.3854 43.9527 38.6542 44.0156 38.9085L45.4824 44.3816C45.5091 44.6354 45.6272 44.8708 45.8146 45.0441C46.0019 45.2173 46.2459 45.3166 46.501 45.3234C46.5887 45.3235 46.676 45.3121 46.7607 45.2893L52.4346 43.7688C52.6863 43.6962 52.8995 43.5277 53.0283 43.2997C53.1571 43.0716 53.1913 42.802 53.1235 42.549C53.0557 42.2959 52.8913 42.0796 52.6657 41.9465C52.4401 41.8134 52.1713 41.7741 51.917 41.8371Z" fill="#FF6D04"/>
    <path d="M1.96679 37.8137C2.12138 37.8131 2.27375 37.7768 2.41201 37.7076C2.55027 37.6384 2.67069 37.5383 2.76388 37.4149C2.85707 37.2916 2.92052 37.1484 2.94928 36.9965C2.97804 36.8446 2.97133 36.6881 2.92968 36.5392C-1.50351 21.808 10.1917 6.05858 25.6084 6.15175L23.1719 8.58711C23.079 8.67996 23.0054 8.79019 22.9551 8.9115C22.9049 9.03281 22.879 9.16284 22.879 9.29414C22.879 9.42545 22.9049 9.55547 22.9551 9.67679C23.0054 9.7981 23.079 9.90833 23.1719 10.0012C23.2647 10.094 23.375 10.1677 23.4963 10.2179C23.6176 10.2682 23.7476 10.294 23.8789 10.294C24.0102 10.294 24.1402 10.2682 24.2615 10.2179C24.3829 10.1677 24.4931 10.094 24.5859 10.0012L28.6014 5.9867C28.7205 5.89959 28.8196 5.78807 28.8922 5.6596C28.9648 5.53112 29.0091 5.38864 29.0223 5.24166C29.0354 5.09469 29.0171 4.9466 28.9684 4.80728C28.9198 4.66797 28.842 4.54064 28.7402 4.43378L24.5859 0.279521C24.3972 0.097884 24.1448 -0.00246361 23.8829 4.59618e-05C23.6209 0.00255553 23.3705 0.107722 23.1852 0.292941C23 0.478161 22.8949 0.728648 22.8924 0.990566C22.8899 1.25248 22.9903 1.50492 23.1719 1.69363L25.6321 4.15379C24.2932 4.16176 22.9572 4.27992 21.6377 4.50706C6.61927 6.78352 -3.28299 22.5498 1.00604 37.0883C1.06579 37.297 1.19183 37.4807 1.36514 37.6116C1.53845 37.7424 1.74962 37.8134 1.96679 37.8137Z" fill="#FF6D04"/>
    <path d="M44.5019 48.1662C44.6812 47.9752 44.7784 47.7215 44.7726 47.4597C44.7669 47.1978 44.6586 46.9486 44.4711 46.7657C44.2835 46.5828 44.0318 46.4808 43.7698 46.4816C43.5079 46.4823 43.2567 46.5858 43.0702 46.7698C32.475 57.99 13.1215 55.6938 5.42849 42.3226L8.749 43.2121C9.00328 43.2751 9.27213 43.2358 9.49775 43.1027C9.72337 42.9696 9.88775 42.7533 9.95554 42.5002C10.0233 42.2472 9.98913 41.9776 9.86029 41.7495C9.73144 41.5214 9.51824 41.353 9.26652 41.2804L3.59277 39.7609C3.46594 39.7268 3.33361 39.718 3.20338 39.7351C3.07314 39.7521 2.94755 39.7947 2.8338 39.8604C2.72005 39.9261 2.62037 40.0135 2.54047 40.1178C2.46057 40.222 2.40201 40.341 2.36816 40.4679L0.847648 46.1418C0.784479 46.3961 0.823665 46.6651 0.956776 46.8908C1.08989 47.1166 1.30628 47.281 1.55942 47.3488C1.81255 47.4167 2.08219 47.3824 2.31032 47.2535C2.53846 47.1245 2.70686 46.9112 2.77931 46.6593L3.68103 43.2945C11.9977 57.8298 33.0048 60.3393 44.5019 48.1662Z" fill="#FF6D04"/>
    <path d="M38.9023 19.5666L36.4531 17.1174C36.1231 16.7891 35.6959 16.5761 35.235 16.5101C34.7742 16.4442 34.3044 16.5287 33.8955 16.7512L32.0801 17.7453C31.5388 17.6637 31.0076 17.2649 30.458 17.1302C30.4311 17.1226 30.4063 17.1093 30.3852 17.091C30.3641 17.0728 30.3473 17.0501 30.336 17.0246L29.8135 15.2346C29.7055 14.7475 29.4374 14.3107 29.052 13.9938C28.6667 13.677 28.1863 13.4984 27.6875 13.4865H24.2246C23.7592 13.4883 23.3068 13.6401 22.9344 13.9192C22.562 14.1984 22.2895 14.5901 22.1572 15.0363L21.5771 17.0207C21.0237 17.3254 20.4385 17.5684 19.8321 17.7455L18.0156 16.7502C17.6064 16.5291 17.137 16.4454 16.6767 16.5115C16.2163 16.5776 15.7894 16.79 15.459 17.1174L13.0117 19.5656C12.6833 19.8956 12.4702 20.3227 12.404 20.7835C12.3379 21.2443 12.4222 21.7142 12.6445 22.1232L13.6386 23.9397C13.5541 24.479 13.1603 25.0075 13.0225 25.5637C13.0146 25.5901 13.0009 25.6145 12.9825 25.6351C12.9641 25.6557 12.9414 25.6719 12.916 25.6828L11.1269 26.2062C10.6399 26.3142 10.203 26.5823 9.88621 26.9677C9.56937 27.3531 9.39076 27.8335 9.37891 28.3322V31.7951C9.3811 32.2604 9.53298 32.7127 9.81208 33.085C10.0912 33.4573 10.4827 33.7299 10.9287 33.8625L12.9131 34.4426C13.2179 34.9961 13.4613 35.5812 13.6388 36.1876L12.6445 38.0031C12.4222 38.4121 12.3378 38.8818 12.4038 39.3426C12.4697 39.8034 12.6826 40.2306 13.0107 40.5607L15.4589 43.009C15.7892 43.3369 16.2164 43.5496 16.6771 43.6156C17.1378 43.6815 17.6075 43.5972 18.0166 43.3752L19.832 42.3811C20.3747 42.4663 20.904 42.8612 21.456 42.9972C21.4826 43.0048 21.5072 43.0182 21.528 43.0364C21.5487 43.0547 21.5652 43.0773 21.5761 43.1027L22.0986 44.8927C22.2066 45.3798 22.4747 45.8166 22.8601 46.1334C23.2454 46.4503 23.7258 46.6289 24.2246 46.6407H27.6875C28.1529 46.6388 28.6052 46.487 28.9776 46.2078C29.3499 45.9287 29.6225 45.5371 29.7549 45.0909L30.3349 43.1065C30.8886 42.802 31.4737 42.5587 32.08 42.3808L33.8965 43.3761C34.3056 43.5974 34.7751 43.6812 35.2355 43.6151C35.6959 43.549 36.1228 43.3364 36.4531 43.0089L38.9023 40.5606C39.2304 40.2305 39.4432 39.8033 39.5092 39.3425C39.5751 38.8818 39.4907 38.412 39.2685 38.003L38.2744 36.1896C38.3543 35.6482 38.7527 35.1193 38.8895 34.5655C38.8971 34.5385 38.9106 34.5136 38.929 34.4925C38.9475 34.4714 38.9704 34.4546 38.9961 34.4435L40.7842 33.9201C41.2715 33.8127 41.7087 33.545 42.0258 33.1597C42.3429 32.7744 42.5215 32.2939 42.5332 31.7951V28.3322C42.5314 27.867 42.3798 27.4146 42.1008 27.0423C41.8218 26.6699 41.4303 26.3973 40.9843 26.2648L38.997 25.6838C38.6942 25.1299 38.4516 24.5452 38.2732 23.9397L39.2685 22.1232C39.4905 21.7144 39.5747 21.2448 39.5087 20.7843C39.4428 20.3238 39.2301 19.8967 38.9023 19.5666ZM38.4365 27.6037L40.4228 28.1847C40.4548 28.1938 40.483 28.2131 40.5029 28.2398C40.5229 28.2664 40.5335 28.2989 40.5332 28.3322V31.7951C40.5332 31.9064 40.2548 31.9913 40.2226 32.0001L38.4336 32.5236C37.2012 32.819 36.9598 34.16 36.4824 35.1545C35.7543 36.4043 36.9806 37.9007 37.5147 38.964C37.5303 38.9933 37.5362 39.0268 37.5315 39.0597C37.5267 39.0925 37.5116 39.123 37.4882 39.1466L35.0391 41.5949C35.0154 41.6182 34.9849 41.6333 34.9521 41.638C34.9192 41.6427 34.8857 41.6369 34.8564 41.6213L33.041 40.6271C31.9609 39.9598 30.8353 40.7408 29.7998 41.1087C28.3905 41.4855 28.2161 43.3925 27.835 44.5305C27.8254 44.5623 27.8059 44.5901 27.7794 44.6099C27.7528 44.6298 27.7206 44.6406 27.6875 44.6408H24.2246C24.1123 44.6408 24.0273 44.3615 24.0185 44.3313L23.4961 42.5413C23.1996 41.3051 21.8636 41.0701 20.8671 40.5911C19.6267 39.8586 18.1172 41.0874 17.0566 41.6204C17.0274 41.6367 16.9937 41.643 16.9606 41.6384C16.9275 41.6338 16.8967 41.6186 16.873 41.595L14.4238 39.1458C14.4006 39.1222 14.3856 39.0919 14.3811 39.0591C14.3765 39.0264 14.3826 38.9931 14.3984 38.9641L15.3926 37.1487C16.0602 36.0646 15.2802 34.9479 14.9111 33.9075C14.5341 32.4994 12.6288 32.3236 11.4912 31.9427C11.4589 31.9337 11.4305 31.9144 11.4102 31.8878C11.39 31.8612 11.379 31.8286 11.3789 31.7952V28.3322C11.3789 28.2199 11.6582 28.135 11.6894 28.1262L13.4766 27.6028C14.7127 27.3108 14.9516 25.9666 15.4286 24.9748C16.1608 23.7233 14.9311 22.2277 14.3984 21.1623C14.3823 21.1333 14.3761 21.0999 14.3809 21.067C14.3857 21.0342 14.4011 21.0039 14.4248 20.9807L16.873 18.5315C16.8967 18.5082 16.9272 18.493 16.96 18.4883C16.9929 18.4836 17.0264 18.4894 17.0557 18.5051L18.8711 19.4993C19.9535 20.167 21.0755 19.3865 22.1142 19.0187C23.5126 18.6466 23.7021 16.7267 24.0771 15.5969C24.0862 15.5648 24.1056 15.5367 24.1322 15.5168C24.1589 15.4968 24.1913 15.4862 24.2246 15.4865H27.6875C27.7998 15.4865 27.8848 15.7658 27.8935 15.7961L28.4159 17.5861C28.7128 18.8196 30.049 19.0581 31.0469 19.5372C32.2969 20.2668 33.7914 19.038 34.8554 18.506C34.8846 18.4895 34.9183 18.4831 34.9515 18.4877C34.9847 18.4923 35.0154 18.5077 35.039 18.5314L37.4882 20.9806C37.5115 21.0041 37.5266 21.0344 37.5314 21.0671C37.5361 21.0998 37.5302 21.1332 37.5146 21.1623L36.5185 22.9806C35.8541 24.0648 36.6322 25.1784 37.001 26.2218C37.1134 26.5495 37.3023 26.8458 37.5519 27.0861C37.8015 27.3264 38.1047 27.5038 38.4365 27.6037Z" fill="#FF6D04"/>
    <path d="M25.956 20.7883C23.4969 20.7911 21.1394 21.7693 19.4005 23.5081C17.6616 25.247 16.6835 27.6046 16.6807 30.0637C17.1813 42.3651 34.7327 42.3616 35.2315 30.0636C35.2286 27.6045 34.2504 25.2469 32.5116 23.5081C30.7727 21.7693 28.4151 20.7911 25.956 20.7883ZM25.956 37.3391C24.0272 37.3369 22.1779 36.5697 20.814 35.2058C19.45 33.8418 18.6828 31.9926 18.6807 30.0637C19.0222 20.4346 32.8913 20.4371 33.2314 30.0638C33.2293 31.9927 32.462 33.8419 31.0981 35.2058C29.7342 36.5697 27.8849 37.3369 25.956 37.3391Z" fill="#FF6D04"/>
  </symbol>
</svg>