<?xml version="1.0" encoding="utf-8"?>
<!-- Made in Bigly. www.bigly.studio  -->
<!DOCTYPE svg PUBLIC "-//W3C//DTD SVG 1.1//EN" "http://www.w3.org/Graphics/SVG/1.1/DTD/svg11.dtd">


<svg version="1.1" xmlns="http://www.w3.org/2000/svg" xmlns:xlink="http://www.w3.org/1999/xlink">

    <!-- Open Link -->

  <symbol viewBox="0 0 34 34" id="open-link">
    <path
        id="open-link-arrow"
        d="M13 13H21M21 13V21M21 13L13 21"
        stroke-width="1.4"
        stroke-linecap="round"
        stroke-linejoin="round"
    />
  </symbol>

  <!-- Button Arrow -->
  <symbol viewBox="0 0 10 10" id="button-arrow">
    <line x1="0" y1="0.5" x2="10" y2="0.5" stroke="currentColor" stroke-width="1.2"/>
    <line x1="0.65492" y1="8.97118" x2="9.39265" y2="0.637904" stroke="currentColor" stroke-width="1.2"/>
    <line x1="9.5" y1="10" x2="9.5" y2="0" stroke="currentColor" stroke-width="1.2"/>
  </symbol>

  <symbol viewBox="0 0 188 66" id="wonder-logo">
    <g clip-path="url(#clip0_1_312)">
    <path d="M58.3717 16.1899L51.5078 20.1621L52.4044 21.7186L59.2683 17.7464L58.3717 16.1899Z" fill="white"/>
    <path d="M76.0322 16.6074H78.9014L81.4836 25.0911L84.281 16.6074H86.4687L89.2661 25.0911L91.8483 16.6074H94.6457L90.4496 29.0094H88.0467L85.3569 21.1368L82.6312 29.0094H80.2283L76.0322 16.6074Z" fill="white"/>
    <path d="M94.1436 24.3726C94.1436 21.6765 96.2954 19.5196 99.2004 19.5196C102.07 19.5196 104.221 21.6765 104.221 24.3726C104.221 27.0686 102.07 29.2255 99.1645 29.2255C96.2954 29.2255 94.1436 27.0686 94.1436 24.3726ZM101.639 24.3726C101.639 23.0065 100.635 21.7843 99.2004 21.7843C97.6941 21.7843 96.7975 22.9346 96.7975 24.3726C96.7975 25.7386 97.8017 26.9608 99.2363 26.9608C100.707 26.9248 101.639 25.7745 101.639 24.3726Z" fill="white"/>
    <path d="M105.727 19.6631H108.381V20.9932C108.991 20.2024 109.78 19.4834 111.107 19.4834C113.115 19.4834 114.263 20.8135 114.263 22.9344V28.9736H111.609V23.7971C111.609 22.539 111.035 21.8919 109.995 21.8919C108.991 21.8919 108.345 22.539 108.345 23.7971V29.0095H105.691V19.6631H105.727Z" fill="white"/>
    <path d="M115.806 24.3365C115.806 21.2091 117.85 19.5195 120.038 19.5195C121.436 19.5195 122.297 20.1666 122.943 20.9215V18.0457L125.597 16.5359V29.0457H122.943V27.6797C122.297 28.5424 121.4 29.1895 120.038 29.1895C117.886 29.1895 115.806 27.464 115.806 24.3365ZM122.978 24.3365C122.978 22.7908 121.938 21.7483 120.719 21.7483C119.5 21.7483 118.46 22.7548 118.46 24.3725C118.46 25.9182 119.5 26.9607 120.719 26.9607C121.974 26.9248 122.978 25.9182 122.978 24.3365Z" fill="white"/>
    <path d="M127.461 24.3726C127.461 21.7125 129.362 19.5197 132.052 19.5197C135.172 19.5197 136.57 21.9282 136.57 24.5883C136.57 24.804 136.57 25.0556 136.535 25.2713H130.043C130.294 26.4576 131.155 27.1046 132.303 27.1046C133.199 27.1046 133.845 26.817 134.562 26.134L136.068 27.4641C135.208 28.5425 133.952 29.1896 132.267 29.1896C129.541 29.2255 127.461 27.2484 127.461 24.3726ZM134.024 23.6177C133.881 22.4314 133.163 21.6406 132.052 21.6406C130.94 21.6406 130.258 22.4314 130.043 23.6177H134.024Z" fill="white"/>
    <path d="M138.65 19.6638H141.304V21.569C141.842 20.2749 142.703 19.4481 144.281 19.52V22.2879H144.138C142.38 22.2879 141.304 23.3664 141.304 25.5951V29.0461H138.65V19.6638Z" fill="white"/>
    <path d="M79.7624 35.2284H76.0684V32.748H86.1462V35.2284H82.4522V45.15H79.7624V35.2284Z" fill="white"/>
    <path d="M85.2129 40.5131C85.2129 37.853 87.1137 35.6602 89.8035 35.6602C92.9237 35.6602 94.3224 38.0687 94.3224 40.7288C94.3224 40.9445 94.3224 41.1961 94.2865 41.4118H87.7951C88.0462 42.5981 88.9069 43.2451 90.0546 43.2451C90.9512 43.2451 91.5967 42.9575 92.314 42.2745L93.8203 43.6046C92.9596 44.683 91.7043 45.3301 90.0187 45.3301C87.293 45.366 85.2129 43.3889 85.2129 40.5131ZM91.776 39.7582C91.6326 38.5719 90.9153 37.7811 89.8035 37.7811C88.6917 37.7811 88.0103 38.5719 87.7951 39.7582H91.776Z" fill="white"/>
    <path d="M95.6494 40.5131C95.6494 37.853 97.6937 35.6602 100.527 35.6602C102.284 35.6602 103.36 36.3072 104.221 37.3138L102.679 38.8955C102.105 38.3562 101.567 37.9608 100.491 37.9608C99.1641 37.9608 98.2316 39.1111 98.2316 40.549C98.2316 41.987 99.1641 43.1373 100.599 43.1373C101.495 43.1373 102.105 42.7419 102.751 42.1307L104.293 43.7124C103.396 44.719 102.356 45.402 100.491 45.402C97.6937 45.366 95.6494 43.2092 95.6494 40.5131Z" fill="white"/>
    <path d="M105.763 32.6768H108.417V37.1343C109.027 36.3434 109.816 35.6245 111.143 35.6245C113.151 35.6245 114.299 36.9545 114.299 39.0754V45.1147H111.645V39.9022C111.645 38.6441 111.071 37.997 110.031 37.997C108.991 37.997 108.381 38.6441 108.381 39.9022V45.1147H105.728V32.6768H105.763Z" fill="white"/>
    <path d="M117.06 35.8039H119.714V37.134C120.324 36.3431 121.113 35.6241 122.44 35.6241C124.448 35.6241 125.596 36.9542 125.596 39.0751V45.1143H122.942V39.9019C122.942 38.6438 122.368 37.9967 121.328 37.9967C120.288 37.9967 119.678 38.6438 119.678 39.9019V45.1143H117.024V35.8039H117.06Z" fill="white"/>
    <path d="M127.031 40.5131C127.031 37.817 129.183 35.6602 132.088 35.6602C134.957 35.6602 137.109 37.817 137.109 40.5131C137.109 43.2092 134.957 45.366 132.052 45.366C129.147 45.366 127.031 43.2092 127.031 40.5131ZM134.491 40.5131C134.491 39.1471 133.487 37.9249 132.052 37.9249C130.546 37.9249 129.649 39.0752 129.649 40.5131C129.649 41.8791 130.654 43.1013 132.088 43.1013C133.594 43.0654 134.491 41.9151 134.491 40.5131Z" fill="white"/>
    <path d="M138.651 34.2941L141.305 32.7843V45.1863H138.651V34.2941Z" fill="white"/>
    <path d="M143.026 40.5131C143.026 37.817 145.178 35.6601 148.083 35.6601C150.952 35.6601 153.104 37.817 153.104 40.5131C153.104 43.2091 150.952 45.366 148.047 45.366C145.142 45.366 143.026 43.2091 143.026 40.5131ZM150.486 40.5131C150.486 39.1471 149.482 37.9248 148.047 37.9248C146.541 37.9248 145.644 39.0752 145.644 40.5131C145.644 41.8791 146.649 43.1013 148.083 43.1013C149.59 43.0654 150.486 41.915 150.486 40.5131Z" fill="white"/>
    <path d="M154.897 46.9836L155.793 45.0065C156.762 45.5457 157.694 45.8692 158.95 45.8692C160.743 45.8692 161.603 45.0065 161.603 43.317V42.8496C160.814 43.7843 159.954 44.3594 158.555 44.3594C156.367 44.3594 154.431 42.7777 154.431 39.9738C154.431 37.1699 156.439 35.6241 158.555 35.6241C159.99 35.6241 160.85 36.2353 161.568 37.0261V35.8039H164.222V43.0294C164.222 44.7189 163.827 45.9052 163.038 46.696C162.177 47.5588 160.814 47.9542 159.021 47.9542C157.479 47.9542 156.08 47.6307 154.897 46.9836ZM161.603 40.0098C161.603 38.7516 160.599 37.8529 159.344 37.8529C158.089 37.8529 157.085 38.7516 157.085 40.0457C157.085 41.3398 158.053 42.2026 159.344 42.2026C160.635 42.2026 161.603 41.3039 161.603 40.0098Z" fill="white"/>
    <path d="M166.087 32.748H168.884V35.0487H166.087V32.748ZM166.159 35.8036H168.813V45.15H166.159V35.8036Z" fill="white"/>
    <path d="M170.534 40.5131C170.534 37.8529 172.435 35.6601 175.125 35.6601C178.245 35.6601 179.644 38.0686 179.644 40.7288C179.644 40.9444 179.644 41.1961 179.608 41.4118H173.116C173.367 42.598 174.228 43.2451 175.376 43.2451C176.272 43.2451 176.918 42.9575 177.635 42.2745L179.142 43.6046C178.281 44.683 177.026 45.3301 175.34 45.3301C172.614 45.366 170.534 43.3889 170.534 40.5131ZM177.097 39.7582C176.954 38.5719 176.237 37.781 175.125 37.781C174.013 37.781 173.332 38.5719 173.116 39.7582H177.097Z" fill="white"/>
    <path d="M180.469 43.9285L181.581 42.203C182.585 42.922 183.661 43.3174 184.521 43.3174C185.275 43.3174 185.633 43.0298 185.633 42.5984C185.633 42.0233 184.737 41.8435 183.697 41.52C182.405 41.1246 180.899 40.5135 180.899 38.6801C180.899 36.7749 182.441 35.7324 184.306 35.7324C185.49 35.7324 186.781 36.1278 187.785 36.8109L186.781 38.6442C185.848 38.105 184.952 37.7814 184.27 37.7814C183.625 37.7814 183.302 38.069 183.302 38.4644C183.302 39.0037 184.199 39.2193 185.203 39.5788C186.494 40.0102 188 40.6573 188 42.3827C188 44.4677 186.458 45.4024 184.45 45.4024C183.159 45.3305 181.688 44.8991 180.469 43.9285Z" fill="white"/>
    <path d="M48.9187 38.1765L68.4288 26.8889L67.5681 25.3431L55.7688 32.1373L54.908 30.5915L59.2118 28.0752L58.351 26.5294L41.2079 36.451L40.3113 34.9052L57.4185 25.0196L56.5219 23.4739L65.9901 17.9739L65.0935 16.4281L43.5391 28.902L42.6784 27.3562L49.636 23.3301L48.7753 21.7843L45.942 23.402L45.0454 21.8562L58.3151 14.1634L57.4544 12.6176L50.4968 16.6438L49.6002 15.098L57.1675 10.7124L56.2709 9.16667L35.649 21.1013L34.7882 19.5556L46.2289 12.9412L45.3323 11.3954L55.9481 5.21242L55.0874 3.66667L25.0691 21.0294L24.1725 19.4837L49.5643 4.81699L48.6677 3.27124L33.7482 11.8987L32.8516 10.3529L37.4422 7.69281L36.5815 6.14706L40.0603 4.13399L32.9233 0L4.41129 16.5V35.049L9.50401 32.1373L10.3647 33.683L4.41129 37.134V39.183L0.753148 41.3039L1.64975 42.8497L8.49981 38.8954L9.39641 40.4412L4.23197 43.4248L5.12858 44.9706L19.4025 36.7026L20.2633 38.2484L0 50.0033L0.896604 51.549L10.0778 46.2288L10.9744 47.7745L6.2045 50.5425L7.96185 51.549L16.5334 46.5882L17.43 48.134L9.75505 52.5915L32.9233 66L61.4353 49.5V37.134L59.4269 38.2843L58.5662 36.7386L61.4353 35.049V33L49.7795 39.7222L48.9187 38.1765Z" fill="white"/>
    <path d="M66.5363 11.4982L65.6396 9.94162L60.4218 12.9612L61.3184 14.5178L66.5363 11.4982Z" fill="white"/>
    </g>
    <defs>
    <clipPath id="clip0_1_312">
    <rect width="188" height="66" fill="white"/>
    </clipPath>
    </defs>
</symbol>


  <!-- Customize Lab -->
  <symbol viewBox="0 0 54 56" id="customize-lab">
    <path d="M51.917 41.8371L48.5499 42.7395C57.0267 28.459 48.5479 8.65376 32.359 4.94968C32.1038 4.89051 31.8357 4.93377 31.6121 5.07016C31.3885 5.20655 31.2273 5.4252 31.1632 5.67913C31.0991 5.93306 31.1371 6.20202 31.2691 6.42822C31.4011 6.65442 31.6166 6.81982 31.8692 6.88889C46.787 10.2954 54.6037 28.5392 46.8361 41.709L45.9473 38.3908C45.8746 38.1392 45.7062 37.9261 45.4781 37.7973C45.25 37.6685 44.9805 37.6343 44.7275 37.7021C44.4745 37.7699 44.2582 37.9343 44.1251 38.1598C43.992 38.3854 43.9527 38.6542 44.0156 38.9085L45.4824 44.3816C45.5091 44.6354 45.6272 44.8708 45.8146 45.0441C46.0019 45.2173 46.2459 45.3166 46.501 45.3234C46.5887 45.3235 46.676 45.3121 46.7607 45.2893L52.4346 43.7688C52.6863 43.6962 52.8995 43.5277 53.0283 43.2997C53.1571 43.0716 53.1913 42.802 53.1235 42.549C53.0557 42.2959 52.8913 42.0796 52.6657 41.9465C52.4401 41.8134 52.1713 41.7741 51.917 41.8371Z" fill="#FF6D04"/>
    <path d="M1.96679 37.8137C2.12138 37.8131 2.27375 37.7768 2.41201 37.7076C2.55027 37.6384 2.67069 37.5383 2.76388 37.4149C2.85707 37.2916 2.92052 37.1484 2.94928 36.9965C2.97804 36.8446 2.97133 36.6881 2.92968 36.5392C-1.50351 21.808 10.1917 6.05858 25.6084 6.15175L23.1719 8.58711C23.079 8.67996 23.0054 8.79019 22.9551 8.9115C22.9049 9.03281 22.879 9.16284 22.879 9.29414C22.879 9.42545 22.9049 9.55547 22.9551 9.67679C23.0054 9.7981 23.079 9.90833 23.1719 10.0012C23.2647 10.094 23.375 10.1677 23.4963 10.2179C23.6176 10.2682 23.7476 10.294 23.8789 10.294C24.0102 10.294 24.1402 10.2682 24.2615 10.2179C24.3829 10.1677 24.4931 10.094 24.5859 10.0012L28.6014 5.9867C28.7205 5.89959 28.8196 5.78807 28.8922 5.6596C28.9648 5.53112 29.0091 5.38864 29.0223 5.24166C29.0354 5.09469 29.0171 4.9466 28.9684 4.80728C28.9198 4.66797 28.842 4.54064 28.7402 4.43378L24.5859 0.279521C24.3972 0.097884 24.1448 -0.00246361 23.8829 4.59618e-05C23.6209 0.00255553 23.3705 0.107722 23.1852 0.292941C23 0.478161 22.8949 0.728648 22.8924 0.990566C22.8899 1.25248 22.9903 1.50492 23.1719 1.69363L25.6321 4.15379C24.2932 4.16176 22.9572 4.27992 21.6377 4.50706C6.61927 6.78352 -3.28299 22.5498 1.00604 37.0883C1.06579 37.297 1.19183 37.4807 1.36514 37.6116C1.53845 37.7424 1.74962 37.8134 1.96679 37.8137Z" fill="#FF6D04"/>
    <path d="M44.5019 48.1662C44.6812 47.9752 44.7784 47.7215 44.7726 47.4597C44.7669 47.1978 44.6586 46.9486 44.4711 46.7657C44.2835 46.5828 44.0318 46.4808 43.7698 46.4816C43.5079 46.4823 43.2567 46.5858 43.0702 46.7698C32.475 57.99 13.1215 55.6938 5.42849 42.3226L8.749 43.2121C9.00328 43.2751 9.27213 43.2358 9.49775 43.1027C9.72337 42.9696 9.88775 42.7533 9.95554 42.5002C10.0233 42.2472 9.98913 41.9776 9.86029 41.7495C9.73144 41.5214 9.51824 41.353 9.26652 41.2804L3.59277 39.7609C3.46594 39.7268 3.33361 39.718 3.20338 39.7351C3.07314 39.7521 2.94755 39.7947 2.8338 39.8604C2.72005 39.9261 2.62037 40.0135 2.54047 40.1178C2.46057 40.222 2.40201 40.341 2.36816 40.4679L0.847648 46.1418C0.784479 46.3961 0.823665 46.6651 0.956776 46.8908C1.08989 47.1166 1.30628 47.281 1.55942 47.3488C1.81255 47.4167 2.08219 47.3824 2.31032 47.2535C2.53846 47.1245 2.70686 46.9112 2.77931 46.6593L3.68103 43.2945C11.9977 57.8298 33.0048 60.3393 44.5019 48.1662Z" fill="#FF6D04"/>
    <path d="M38.9023 19.5666L36.4531 17.1174C36.1231 16.7891 35.6959 16.5761 35.235 16.5101C34.7742 16.4442 34.3044 16.5287 33.8955 16.7512L32.0801 17.7453C31.5388 17.6637 31.0076 17.2649 30.458 17.1302C30.4311 17.1226 30.4063 17.1093 30.3852 17.091C30.3641 17.0728 30.3473 17.0501 30.336 17.0246L29.8135 15.2346C29.7055 14.7475 29.4374 14.3107 29.052 13.9938C28.6667 13.677 28.1863 13.4984 27.6875 13.4865H24.2246C23.7592 13.4883 23.3068 13.6401 22.9344 13.9192C22.562 14.1984 22.2895 14.5901 22.1572 15.0363L21.5771 17.0207C21.0237 17.3254 20.4385 17.5684 19.8321 17.7455L18.0156 16.7502C17.6064 16.5291 17.137 16.4454 16.6767 16.5115C16.2163 16.5776 15.7894 16.79 15.459 17.1174L13.0117 19.5656C12.6833 19.8956 12.4702 20.3227 12.404 20.7835C12.3379 21.2443 12.4222 21.7142 12.6445 22.1232L13.6386 23.9397C13.5541 24.479 13.1603 25.0075 13.0225 25.5637C13.0146 25.5901 13.0009 25.6145 12.9825 25.6351C12.9641 25.6557 12.9414 25.6719 12.916 25.6828L11.1269 26.2062C10.6399 26.3142 10.203 26.5823 9.88621 26.9677C9.56937 27.3531 9.39076 27.8335 9.37891 28.3322V31.7951C9.3811 32.2604 9.53298 32.7127 9.81208 33.085C10.0912 33.4573 10.4827 33.7299 10.9287 33.8625L12.9131 34.4426C13.2179 34.9961 13.4613 35.5812 13.6388 36.1876L12.6445 38.0031C12.4222 38.4121 12.3378 38.8818 12.4038 39.3426C12.4697 39.8034 12.6826 40.2306 13.0107 40.5607L15.4589 43.009C15.7892 43.3369 16.2164 43.5496 16.6771 43.6156C17.1378 43.6815 17.6075 43.5972 18.0166 43.3752L19.832 42.3811C20.3747 42.4663 20.904 42.8612 21.456 42.9972C21.4826 43.0048 21.5072 43.0182 21.528 43.0364C21.5487 43.0547 21.5652 43.0773 21.5761 43.1027L22.0986 44.8927C22.2066 45.3798 22.4747 45.8166 22.8601 46.1334C23.2454 46.4503 23.7258 46.6289 24.2246 46.6407H27.6875C28.1529 46.6388 28.6052 46.487 28.9776 46.2078C29.3499 45.9287 29.6225 45.5371 29.7549 45.0909L30.3349 43.1065C30.8886 42.802 31.4737 42.5587 32.08 42.3808L33.8965 43.3761C34.3056 43.5974 34.7751 43.6812 35.2355 43.6151C35.6959 43.549 36.1228 43.3364 36.4531 43.0089L38.9023 40.5606C39.2304 40.2305 39.4432 39.8033 39.5092 39.3425C39.5751 38.8818 39.4907 38.412 39.2685 38.003L38.2744 36.1896C38.3543 35.6482 38.7527 35.1193 38.8895 34.5655C38.8971 34.5385 38.9106 34.5136 38.929 34.4925C38.9475 34.4714 38.9704 34.4546 38.9961 34.4435L40.7842 33.9201C41.2715 33.8127 41.7087 33.545 42.0258 33.1597C42.3429 32.7744 42.5215 32.2939 42.5332 31.7951V28.3322C42.5314 27.867 42.3798 27.4146 42.1008 27.0423C41.8218 26.6699 41.4303 26.3973 40.9843 26.2648L38.997 25.6838C38.6942 25.1299 38.4516 24.5452 38.2732 23.9397L39.2685 22.1232C39.4905 21.7144 39.5747 21.2448 39.5087 20.7843C39.4428 20.3238 39.2301 19.8967 38.9023 19.5666ZM38.4365 27.6037L40.4228 28.1847C40.4548 28.1938 40.483 28.2131 40.5029 28.2398C40.5229 28.2664 40.5335 28.2989 40.5332 28.3322V31.7951C40.5332 31.9064 40.2548 31.9913 40.2226 32.0001L38.4336 32.5236C37.2012 32.819 36.9598 34.16 36.4824 35.1545C35.7543 36.4043 36.9806 37.9007 37.5147 38.964C37.5303 38.9933 37.5362 39.0268 37.5315 39.0597C37.5267 39.0925 37.5116 39.123 37.4882 39.1466L35.0391 41.5949C35.0154 41.6182 34.9849 41.6333 34.9521 41.638C34.9192 41.6427 34.8857 41.6369 34.8564 41.6213L33.041 40.6271C31.9609 39.9598 30.8353 40.7408 29.7998 41.1087C28.3905 41.4855 28.2161 43.3925 27.835 44.5305C27.8254 44.5623 27.8059 44.5901 27.7794 44.6099C27.7528 44.6298 27.7206 44.6406 27.6875 44.6408H24.2246C24.1123 44.6408 24.0273 44.3615 24.0185 44.3313L23.4961 42.5413C23.1996 41.3051 21.8636 41.0701 20.8671 40.5911C19.6267 39.8586 18.1172 41.0874 17.0566 41.6204C17.0274 41.6367 16.9937 41.643 16.9606 41.6384C16.9275 41.6338 16.8967 41.6186 16.873 41.595L14.4238 39.1458C14.4006 39.1222 14.3856 39.0919 14.3811 39.0591C14.3765 39.0264 14.3826 38.9931 14.3984 38.9641L15.3926 37.1487C16.0602 36.0646 15.2802 34.9479 14.9111 33.9075C14.5341 32.4994 12.6288 32.3236 11.4912 31.9427C11.4589 31.9337 11.4305 31.9144 11.4102 31.8878C11.39 31.8612 11.379 31.8286 11.3789 31.7952V28.3322C11.3789 28.2199 11.6582 28.135 11.6894 28.1262L13.4766 27.6028C14.7127 27.3108 14.9516 25.9666 15.4286 24.9748C16.1608 23.7233 14.9311 22.2277 14.3984 21.1623C14.3823 21.1333 14.3761 21.0999 14.3809 21.067C14.3857 21.0342 14.4011 21.0039 14.4248 20.9807L16.873 18.5315C16.8967 18.5082 16.9272 18.493 16.96 18.4883C16.9929 18.4836 17.0264 18.4894 17.0557 18.5051L18.8711 19.4993C19.9535 20.167 21.0755 19.3865 22.1142 19.0187C23.5126 18.6466 23.7021 16.7267 24.0771 15.5969C24.0862 15.5648 24.1056 15.5367 24.1322 15.5168C24.1589 15.4968 24.1913 15.4862 24.2246 15.4865H27.6875C27.7998 15.4865 27.8848 15.7658 27.8935 15.7961L28.4159 17.5861C28.7128 18.8196 30.049 19.0581 31.0469 19.5372C32.2969 20.2668 33.7914 19.038 34.8554 18.506C34.8846 18.4895 34.9183 18.4831 34.9515 18.4877C34.9847 18.4923 35.0154 18.5077 35.039 18.5314L37.4882 20.9806C37.5115 21.0041 37.5266 21.0344 37.5314 21.0671C37.5361 21.0998 37.5302 21.1332 37.5146 21.1623L36.5185 22.9806C35.8541 24.0648 36.6322 25.1784 37.001 26.2218C37.1134 26.5495 37.3023 26.8458 37.5519 27.0861C37.8015 27.3264 38.1047 27.5038 38.4365 27.6037Z" fill="#FF6D04"/>
    <path d="M25.956 20.7883C23.4969 20.7911 21.1394 21.7693 19.4005 23.5081C17.6616 25.247 16.6835 27.6046 16.6807 30.0637C17.1813 42.3651 34.7327 42.3616 35.2315 30.0636C35.2286 27.6045 34.2504 25.2469 32.5116 23.5081C30.7727 21.7693 28.4151 20.7911 25.956 20.7883ZM25.956 37.3391C24.0272 37.3369 22.1779 36.5697 20.814 35.2058C19.45 33.8418 18.6828 31.9926 18.6807 30.0637C19.0222 20.4346 32.8913 20.4371 33.2314 30.0638C33.2293 31.9927 32.462 33.8419 31.0981 35.2058C29.7342 36.5697 27.8849 37.3369 25.956 37.3391Z" fill="#FF6D04"/>
  </symbol>
</svg>