<svg width="468" height="160" viewBox="0 0 468 160" fill="none" xmlns="http://www.w3.org/2000/svg">
<path d="M0.93335 1.8935L36.9375 22.64V64.7074L0.93335 85.4539V1.8935Z" stroke="#FF002B" stroke-opacity="0.4"/>
<path d="M173.681 85.742L137.177 64.7074V22.64L173.681 1.60539L210.185 22.64V64.7074L173.681 85.742Z" stroke="#FF002B" stroke-opacity="0.4"/>
<path d="M390.195 159.396L353.691 138.361V96.3294L390.195 75.2948L426.7 96.3294V138.361L390.195 159.396Z" stroke="#FF002B" stroke-opacity="0.4"/>
<path d="M130.384 159.396L93.8796 138.361V96.3294L130.384 75.2949L166.852 96.3293V138.362L130.384 159.396Z" stroke="#FF002B" stroke-opacity="0.4"/>
<path d="M467.472 84.7088L431.468 63.9623V21.8948L467.472 1.14838V84.7088Z" stroke="#FF002B" stroke-opacity="0.4"/>
<path d="M216.872 75.582L252.876 96.3285V138.36L216.872 159.107V75.582Z" stroke="#FF002B" stroke-opacity="0.4"/>
</svg>
